<svg xmlns="http://www.w3.org/2000/svg" xmlns:xlink="http://www.w3.org/1999/xlink" width="211.638" height="81" viewBox="0 0 211.638 81">
  <defs>
    <clipPath id="clip-path">
      <rect id="Rectangle_195" data-name="Rectangle 195" width="211.638" height="27.718" fill="none"/>
    </clipPath>
    <clipPath id="clip-path-2">
      <rect id="Rectangle_196" data-name="Rectangle 196" width="40.883" height="35.25" fill="#e6ae6e"/>
    </clipPath>
  </defs>
  <g id="Group_75" data-name="Group 75" transform="translate(548.034 -113.668)">
    <g id="Group_72" data-name="Group 72" transform="translate(-548.034 156.381)">
      <g id="Group_71" data-name="Group 71" clip-path="url(#clip-path)">
        <path id="Path_136" data-name="Path 136" d="M-537.595,379.407h4.471a.543.543,0,0,0,.529-.257.642.642,0,0,0-.015-.589l-2.356-4.985q-.151-.362-.393-.362t-.392.362l-2.387,4.985a.633.633,0,0,0,0,.6.588.588,0,0,0,.544.242m-8.852,6.344,10.483-20.936a.625.625,0,0,1,.6-.362.625.625,0,0,1,.6.362l10.482,20.936a.57.57,0,0,1,.046.574.552.552,0,0,1-.529.242H-527.5a1.481,1.481,0,0,1-.785-.242,1.3,1.3,0,0,1-.544-.6l-.907-1.813a1.613,1.613,0,0,0-.558-.574,1.419,1.419,0,0,0-.771-.241h-8.579a1.493,1.493,0,0,0-.785.241,1.3,1.3,0,0,0-.544.6l-.877,1.782a1.515,1.515,0,0,1-.558.6,1.409,1.409,0,0,1-.771.242h-2.749a.551.551,0,0,1-.528-.242.611.611,0,0,1,.015-.574" transform="translate(547.493 -246.364)" fill="#e39c58"/>
        <path id="Path_137" data-name="Path 137" d="M-492.318,383.757v1.874a.9.9,0,0,1-.273.664.9.9,0,0,1-.664.272H-507.3a.9.9,0,0,1-.664-.272.905.905,0,0,1-.272-.664V365.389a.9.9,0,0,1,.272-.665.907.907,0,0,1,.664-.271h2.357a.909.909,0,0,1,.664.271.9.9,0,0,1,.272.665v16.495a.9.9,0,0,0,.273.664.9.9,0,0,0,.664.272h9.818a.9.9,0,0,1,.664.271.9.9,0,0,1,.273.665" transform="translate(533.755 -246.364)" fill="#e39c58"/>
        <path id="Path_138" data-name="Path 138" d="M-468.025,382.549a2.436,2.436,0,0,0,.846-.694,3,3,0,0,0,.574-.967,2.471,2.471,0,0,0,.211-1.057,2.512,2.512,0,0,0-.816-1.874,3.19,3.19,0,0,0-2.3-.755H-474.1a.9.9,0,0,0-.664.273.9.9,0,0,0-.272.664v3.746a.9.9,0,0,0,.272.664.9.9,0,0,0,.664.272h5.044a1.95,1.95,0,0,0,1.028-.272m-6.072-9.093h4.259a2.472,2.472,0,0,0,1.118-.241,2.56,2.56,0,0,0,.785-.635,2.786,2.786,0,0,0,.483-.906,2.966,2.966,0,0,0,.151-1,2.524,2.524,0,0,0-.18-.937,2.42,2.42,0,0,0-.483-.785,2.835,2.835,0,0,0-.7-.544,1.815,1.815,0,0,0-.875-.211H-474.1a.9.9,0,0,0-.664.271.906.906,0,0,0-.272.665v3.384a.9.9,0,0,0,.272.664.9.9,0,0,0,.664.272m10.755-1.42a6.476,6.476,0,0,1-.725,1.39,3.852,3.852,0,0,1-1.148,1.057,3.227,3.227,0,0,1-.7.362c-.2.062-.292.106-.272.136a1,1,0,0,0,.363.137c.281.1.544.2.785.3a4.643,4.643,0,0,1,1.42,1.118,5.4,5.4,0,0,1,1.057,1.6,4.6,4.6,0,0,1,.394,1.9,7.8,7.8,0,0,1-.544,3.082,5.238,5.238,0,0,1-1.481,2.024,5.038,5.038,0,0,1-2.175,1.087c-.423.1-.857.181-1.3.242a10.293,10.293,0,0,1-1.39.091h-9.274a.906.906,0,0,1-.665-.273.9.9,0,0,1-.271-.664V365.391a.9.9,0,0,1,.271-.664.9.9,0,0,1,.665-.271h8.791q.694,0,1.3.059t1.209.181a5.146,5.146,0,0,1,2.054.966,4.188,4.188,0,0,1,1.389,1.874,7.439,7.439,0,0,1,.514,3.051,4.283,4.283,0,0,1-.272,1.45" transform="translate(523.359 -246.365)" fill="#e39c58"/>
        <path id="Path_139" data-name="Path 139" d="M-442.047,379.407h4.471a.542.542,0,0,0,.528-.257.642.642,0,0,0-.015-.589l-2.356-4.985c-.1-.241-.231-.362-.393-.362s-.292.121-.393.362l-2.386,4.985a.633.633,0,0,0,0,.6.588.588,0,0,0,.544.242m-8.852,6.344,10.483-20.936a.625.625,0,0,1,.6-.362.626.626,0,0,1,.6.362l10.482,20.936a.57.57,0,0,1,.046.574.552.552,0,0,1-.529.242h-2.749a1.48,1.48,0,0,1-.785-.242,1.294,1.294,0,0,1-.544-.6l-.907-1.813a1.609,1.609,0,0,0-.559-.574,1.415,1.415,0,0,0-.77-.241H-444.1a1.493,1.493,0,0,0-.785.241,1.3,1.3,0,0,0-.544.6l-.876,1.782a1.517,1.517,0,0,1-.559.6,1.406,1.406,0,0,1-.77.242h-2.749a.551.551,0,0,1-.528-.242.61.61,0,0,1,.015-.574" transform="translate(513.21 -246.364)" fill="#e39c58"/>
        <path id="Path_140" data-name="Path 140" d="M-396.424,383.757v1.874a.905.905,0,0,1-.272.664.9.9,0,0,1-.665.272h-14.047a.9.9,0,0,1-.664-.272.905.905,0,0,1-.272-.664V365.389a.9.9,0,0,1,.272-.665.908.908,0,0,1,.664-.271h2.356a.909.909,0,0,1,.665.271.907.907,0,0,1,.271.665v16.495a.9.9,0,0,0,.272.664.9.9,0,0,0,.664.272h9.818a.9.9,0,0,1,.665.271.9.9,0,0,1,.272.665" transform="translate(499.348 -246.364)" fill="#e39c58"/>
        <path id="Path_141" data-name="Path 141" d="M-379.664,386.311a8.427,8.427,0,0,1-2.991-1.873,7.927,7.927,0,0,1-1.933-2.931,10.421,10.421,0,0,1-.664-3.837V365.437a.906.906,0,0,1,.271-.665.872.872,0,0,1,.635-.272h2.386a.9.9,0,0,1,.665.272.905.905,0,0,1,.272.665v12.205a6.129,6.129,0,0,0,.544,2.748,5.52,5.52,0,0,0,1.329,1.722,4.491,4.491,0,0,0,1.722.875,8.958,8.958,0,0,0,.891.182,5.182,5.182,0,0,0,.771.06,6.88,6.88,0,0,0,1.631-.242,4,4,0,0,0,1.722-.875,4.939,4.939,0,0,0,1.359-1.722,6.129,6.129,0,0,0,.544-2.748V365.437a.907.907,0,0,1,.271-.665.906.906,0,0,1,.665-.272h2.356a.907.907,0,0,1,.666.272.907.907,0,0,1,.271.665v12.234a11.667,11.667,0,0,1-.166,2.01,10.107,10.107,0,0,1-.5,1.827,8.488,8.488,0,0,1-1.9,2.931,8.8,8.8,0,0,1-2.991,1.873,10.861,10.861,0,0,1-3.927.664,10.615,10.615,0,0,1-3.9-.664" transform="translate(489.627 -246.381)" fill="#e39c58"/>
        <path id="Path_142" data-name="Path 142" d="M-344.818,374.892l-7.22-9.606a.517.517,0,0,1-.136-.544q.1-.241.5-.242h3.384a1.739,1.739,0,0,1,.8.212,1.837,1.837,0,0,1,.65.544l4.652,6.435a.677.677,0,0,0,.543.332.678.678,0,0,0,.544-.332l4.653-6.435a1.8,1.8,0,0,1,.665-.544,1.823,1.823,0,0,1,.815-.212h3.353q.393,0,.5.242a.522.522,0,0,1-.136.544l-7.19,9.606a1.251,1.251,0,0,0-.242.755,1.121,1.121,0,0,0,.242.725l7.039,9.4a.574.574,0,0,1,.135.573c-.071.162-.237.242-.5.242h-3.384a1.813,1.813,0,0,1-.816-.212,1.774,1.774,0,0,1-.665-.544l-4.472-6.192a.678.678,0,0,0-.544-.333.677.677,0,0,0-.543.333l-4.472,6.192a1.812,1.812,0,0,1-.649.544,1.732,1.732,0,0,1-.8.212h-3.383c-.262,0-.428-.08-.5-.242a.572.572,0,0,1,.136-.573l7.039-9.4a1.124,1.124,0,0,0,.242-.725,1.255,1.255,0,0,0-.242-.755" transform="translate(477.77 -246.381)" fill="#e39c58"/>
        <path id="Path_143" data-name="Path 143" d="M-308.9,386.311a8.421,8.421,0,0,1-2.99-1.873,7.912,7.912,0,0,1-1.934-2.931,10.421,10.421,0,0,1-.665-3.837V365.437a.907.907,0,0,1,.272-.665.873.873,0,0,1,.635-.272h2.386a.9.9,0,0,1,.665.272.905.905,0,0,1,.273.665v12.205a6.12,6.12,0,0,0,.544,2.748,5.52,5.52,0,0,0,1.329,1.722,4.494,4.494,0,0,0,1.722.875,9,9,0,0,0,.891.182,5.167,5.167,0,0,0,.771.06,6.889,6.889,0,0,0,1.632-.242,4,4,0,0,0,1.722-.875,4.938,4.938,0,0,0,1.359-1.722,6.138,6.138,0,0,0,.544-2.748V365.437a.9.9,0,0,1,.271-.665.906.906,0,0,1,.665-.272h2.356a.9.9,0,0,1,.665.272.9.9,0,0,1,.272.665v12.234a11.6,11.6,0,0,1-.167,2.01,10.052,10.052,0,0,1-.5,1.827,8.481,8.481,0,0,1-1.9,2.931,8.793,8.793,0,0,1-2.991,1.873,10.864,10.864,0,0,1-3.927.664,10.62,10.62,0,0,1-3.9-.664" transform="translate(464.236 -246.381)" fill="#e39c58"/>
        <path id="Path_144" data-name="Path 144" d="M-273.139,375.782h4.894a3.313,3.313,0,0,0,1.178-.242,3.013,3.013,0,0,0,1.118-.694,4.116,4.116,0,0,0,.785-1.148,3.806,3.806,0,0,0,.3-1.631,5.854,5.854,0,0,0-.121-1.148,3.654,3.654,0,0,0-.181-.649,6.755,6.755,0,0,0-.271-.62,3.137,3.137,0,0,0-1.028-1.027,3.384,3.384,0,0,0-1.782-.423h-4.894a.9.9,0,0,0-.664.272.9.9,0,0,0-.273.665v5.71a.9.9,0,0,0,.273.664.9.9,0,0,0,.664.272m-1.843,10.785h-2.387a.9.9,0,0,1-.665-.272.906.906,0,0,1-.272-.665V365.39a.905.905,0,0,1,.272-.665.906.906,0,0,1,.665-.272h9.124a8.628,8.628,0,0,1,3.112.544,7.914,7.914,0,0,1,2.387,1.571,6.878,6.878,0,0,1,.906,1.118,7.2,7.2,0,0,1,.665,1.3,8.552,8.552,0,0,1,.544,3.082,7.572,7.572,0,0,1-1.239,4.38,7.023,7.023,0,0,1-2.507,2.3.818.818,0,0,0-.423.5.66.66,0,0,0,.151.619q1.117,1.511,2.13,2.855t2.1,2.855a.717.717,0,0,1,.136.664.465.465,0,0,1-.5.332h-3.051a1.807,1.807,0,0,1-.815-.212,1.936,1.936,0,0,1-.665-.514q-.513-.694-1.012-1.374t-1.012-1.375l-1.994-2.81a1.788,1.788,0,0,0-.664-.544,1.83,1.83,0,0,0-.816-.212h-2.326a.9.9,0,0,0-.664.273.9.9,0,0,0-.273.664v5.165a.93.93,0,0,1-.257.665.852.852,0,0,1-.649.272" transform="translate(451.254 -246.364)" fill="#e39c58"/>
        <path id="Path_145" data-name="Path 145" d="M-229.5,365.285l-.7,1.133q-.363.589-.785,1.254-.543.877-1.1,1.782t-1.134,1.843q-.6.936-1.163,1.858t-1.1,1.8q-.423.664-.8,1.268t-.71,1.178a2.752,2.752,0,0,0-.332.846,4.048,4.048,0,0,0-.121.907v6.495a.9.9,0,0,1-.272.664.9.9,0,0,1-.665.273h-2.386a.852.852,0,0,1-.65-.273.93.93,0,0,1-.256-.664v-6.495a3.616,3.616,0,0,0-.136-.907,3.028,3.028,0,0,0-.348-.846q-.875-1.54-1.8-3.035t-1.889-3.007q-1-1.54-1.933-3.036t-1.812-3.035a.514.514,0,0,1-.076-.558.562.562,0,0,1,.528-.228h3.082a1.624,1.624,0,0,1,.8.228,1.424,1.424,0,0,1,.589.558l1.148,1.933q.573.968,1.178,1.964.573,1,1.148,1.963l1.148,1.933a.533.533,0,0,0,.468.333.6.6,0,0,0,.5-.333c.14-.24.287-.483.439-.725s.306-.493.467-.755l1.45-2.446q.363-.6.71-1.209t.709-1.209q.242-.363.453-.725l.423-.725a1.435,1.435,0,0,1,.589-.558,1.626,1.626,0,0,1,.8-.228h3.082a.526.526,0,0,1,.514.228.574.574,0,0,1-.06.558" transform="translate(440.997 -246.38)" fill="#e39c58"/>
        <path id="Path_146" data-name="Path 146" d="M-449.764,418.108c1.242,0,1.844-.689,1.844-1.611,0-1-.626-1.647-1.868-1.647h-1.057v3.257Zm.025-4.3c1.929,0,3.1,1.144,3.1,2.692a2.718,2.718,0,0,1-3.023,2.655h-1.18v2.938h-1.266v-8.284Z" transform="translate(513.616 -264.072)" fill="#e39c58"/>
        <path id="Path_147" data-name="Path 147" d="M-440.3,417.887h1.143a1.42,1.42,0,0,0,1.6-1.511c0-.983-.565-1.512-1.659-1.512H-440.3Zm1.094,1.057H-440.3v3.146h-1.266v-8.284h2.31c1.93,0,2.974,1.019,2.974,2.58a2.4,2.4,0,0,1-1.634,2.36l2.163,3.344h-1.513Z" transform="translate(509.834 -264.072)" fill="#e39c58"/>
        <path id="Path_148" data-name="Path 148" d="M-425.9,421.033v1.057h-4.781v-8.284h4.72v1.057h-3.454v2.556h3.06v1.056h-3.06v2.557Z" transform="translate(505.927 -264.072)" fill="#e39c58"/>
        <path id="Path_149" data-name="Path 149" d="M-416.458,415.358a3.76,3.76,0,0,0-1.868-.516c-.909,0-1.45.442-1.45,1.093,0,.726.713,1.057,1.548,1.426,1.044.455,2.2.983,2.2,2.434,0,1.5-1.18,2.347-2.778,2.347a4.62,4.62,0,0,1-2.261-.529V420.3a3.805,3.805,0,0,0,2.249.726c.885,0,1.463-.43,1.463-1.18,0-.713-.689-1.032-1.549-1.413-1.02-.467-2.212-.984-2.212-2.434s1.168-2.285,2.753-2.285a4.424,4.424,0,0,1,1.906.392Z" transform="translate(502.495 -264.038)" fill="#e39c58"/>
        <path id="Path_150" data-name="Path 150" d="M-406.215,414.863h-2.176v7.228h-1.266v-7.228h-2.163v-1.057h5.6Z" transform="translate(499.159 -264.072)" fill="#e39c58"/>
        <rect id="Rectangle_193" data-name="Rectangle 193" width="1.254" height="8.284" transform="translate(94.21 149.734)" fill="#e39c58"/>
        <path id="Path_151" data-name="Path 151" d="M-389.721,421.245h-.012l.012.085a4.651,4.651,0,0,1-2.679.775,4.01,4.01,0,0,1-4.314-4.252,4.088,4.088,0,0,1,4.24-4.277,4.951,4.951,0,0,1,2.409.553v1.3a4.407,4.407,0,0,0-2.36-.664,2.86,2.86,0,0,0-2.962,3.085,2.816,2.816,0,0,0,3.024,3.073,3.7,3.7,0,0,0,1.4-.271V418.37h-1.684v-1.095h2.925Z" transform="translate(493.739 -263.99)" fill="#e39c58"/>
        <path id="Path_152" data-name="Path 152" d="M-378.363,421.033v1.057h-4.781v-8.284h4.72v1.057h-3.455v2.556h3.06v1.056h-3.06v2.557Z" transform="translate(488.87 -264.072)" fill="#e39c58"/>
        <path id="Path_153" data-name="Path 153" d="M-362.32,413.806v8.284h-1.266v-3.626h-3.725v3.626h-1.266v-8.284h1.266v3.564h3.725v-3.564Z" transform="translate(483.644 -264.072)" fill="#e39c58"/>
        <path id="Path_154" data-name="Path 154" d="M-352.708,420.919c1.561,0,2.47-1.18,2.47-3.1s-.909-3.085-2.482-3.085c-1.536,0-2.471,1.18-2.471,3.085s.983,3.1,2.483,3.1m-.012-7.363c2.384,0,3.81,1.7,3.81,4.265s-1.463,4.277-3.8,4.277c-2.311,0-3.81-1.695-3.81-4.277s1.475-4.265,3.8-4.265" transform="translate(479.317 -263.982)" fill="#e39c58"/>
        <path id="Path_155" data-name="Path 155" d="M-337.408,413.806h1.266v5.113c0,2.188-1.229,3.282-3.146,3.282a2.876,2.876,0,0,1-3.122-3.184v-5.212h1.266v5.2c0,1.5.824,2.028,1.856,2.028,1.081,0,1.88-.529,1.88-2.09Z" transform="translate(474.255 -264.072)" fill="#e39c58"/>
        <path id="Path_156" data-name="Path 156" d="M-325.5,415.358a3.76,3.76,0,0,0-1.868-.516c-.909,0-1.45.442-1.45,1.093,0,.726.713,1.057,1.548,1.426,1.045.455,2.2.983,2.2,2.434,0,1.5-1.18,2.347-2.778,2.347a4.62,4.62,0,0,1-2.261-.529V420.3a3.805,3.805,0,0,0,2.249.726c.885,0,1.463-.43,1.463-1.18,0-.713-.689-1.032-1.549-1.413-1.02-.467-2.211-.984-2.211-2.434s1.167-2.285,2.752-2.285a4.424,4.424,0,0,1,1.906.392Z" transform="translate(469.86 -264.038)" fill="#e39c58"/>
        <path id="Path_157" data-name="Path 157" d="M-315.106,421.033v1.057h-4.781v-8.284h4.72v1.057h-3.455v2.556h3.06v1.056h-3.06v2.557Z" transform="translate(466.174 -264.072)" fill="#e39c58"/>
        <path id="Path_158" data-name="Path 158" d="M-539.063,195.236h4.471a.543.543,0,0,0,.529-.257.642.642,0,0,0-.015-.589l-2.356-4.985c-.1-.242-.232-.362-.393-.362s-.292.121-.392.362l-2.387,4.985a.633.633,0,0,0,0,.6.588.588,0,0,0,.544.242m-8.852,6.344,10.483-20.936a.625.625,0,0,1,.6-.362.625.625,0,0,1,.6.362l10.482,20.936a.57.57,0,0,1,.046.574.552.552,0,0,1-.529.242h-2.748a1.481,1.481,0,0,1-.785-.242,1.3,1.3,0,0,1-.544-.6l-.907-1.813a1.607,1.607,0,0,0-.558-.574,1.419,1.419,0,0,0-.771-.241h-8.579a1.493,1.493,0,0,0-.785.241,1.3,1.3,0,0,0-.544.6l-.877,1.782a1.515,1.515,0,0,1-.559.6,1.409,1.409,0,0,1-.771.242H-547.4a.551.551,0,0,1-.528-.242.612.612,0,0,1,.015-.574" transform="translate(548.019 -180.282)" fill="#fff"/>
        <path id="Path_159" data-name="Path 159" d="M-493.786,199.587v1.874a.905.905,0,0,1-.272.664.907.907,0,0,1-.666.271h-14.047a.907.907,0,0,1-.664-.271.907.907,0,0,1-.271-.664V181.219a.907.907,0,0,1,.271-.665.907.907,0,0,1,.664-.271h2.358a.906.906,0,0,1,.664.271.906.906,0,0,1,.272.665v16.495a.9.9,0,0,0,.272.664.9.9,0,0,0,.664.272h9.817a.908.908,0,0,1,.666.272.9.9,0,0,1,.272.665" transform="translate(534.282 -180.283)" fill="#fff"/>
        <path id="Path_160" data-name="Path 160" d="M-469.493,198.378a2.43,2.43,0,0,0,.846-.694,3,3,0,0,0,.574-.967,2.469,2.469,0,0,0,.211-1.057,2.512,2.512,0,0,0-.816-1.874,3.188,3.188,0,0,0-2.3-.755h-4.592a.905.905,0,0,0-.664.273.9.9,0,0,0-.272.664v3.746a.9.9,0,0,0,.272.664.9.9,0,0,0,.664.273h5.045a1.95,1.95,0,0,0,1.027-.273m-6.072-9.093h4.259a2.472,2.472,0,0,0,1.118-.241,2.545,2.545,0,0,0,.785-.635,2.774,2.774,0,0,0,.483-.906,2.964,2.964,0,0,0,.151-1,2.51,2.51,0,0,0-.181-.937,2.41,2.41,0,0,0-.483-.785,2.82,2.82,0,0,0-.7-.544,1.82,1.82,0,0,0-.876-.211h-4.562a.9.9,0,0,0-.664.272.9.9,0,0,0-.272.664v3.384a.9.9,0,0,0,.272.664.9.9,0,0,0,.664.272m10.755-1.42a6.45,6.45,0,0,1-.725,1.39,3.852,3.852,0,0,1-1.148,1.057,3.222,3.222,0,0,1-.694.362c-.2.062-.292.106-.272.136a1,1,0,0,0,.363.137c.281.1.544.2.785.3a4.646,4.646,0,0,1,1.42,1.118,5.419,5.419,0,0,1,1.057,1.6,4.6,4.6,0,0,1,.393,1.9,7.8,7.8,0,0,1-.544,3.082,5.236,5.236,0,0,1-1.48,2.024,5.035,5.035,0,0,1-2.175,1.087c-.423.1-.857.181-1.3.242a10.311,10.311,0,0,1-1.39.091h-9.274a.9.9,0,0,1-.664-.273.9.9,0,0,1-.272-.664V181.219a.9.9,0,0,1,.272-.664.9.9,0,0,1,.664-.272H-471q.694,0,1.3.06c.4.041.805.1,1.209.181a5.139,5.139,0,0,1,2.054.966,4.18,4.18,0,0,1,1.389,1.874,7.438,7.438,0,0,1,.514,3.051,4.283,4.283,0,0,1-.273,1.45" transform="translate(523.885 -180.283)" fill="#fff"/>
        <path id="Path_161" data-name="Path 161" d="M-443.515,195.236h4.471a.542.542,0,0,0,.528-.257.642.642,0,0,0-.015-.589l-2.356-4.985c-.1-.242-.231-.362-.393-.362s-.292.121-.393.362l-2.386,4.985a.633.633,0,0,0,0,.6.588.588,0,0,0,.544.242m-8.852,6.344,10.483-20.936a.625.625,0,0,1,.6-.362.626.626,0,0,1,.6.362l10.482,20.936a.57.57,0,0,1,.046.574.552.552,0,0,1-.529.242h-2.749a1.484,1.484,0,0,1-.785-.242,1.3,1.3,0,0,1-.544-.6l-.907-1.813a1.6,1.6,0,0,0-.559-.574,1.417,1.417,0,0,0-.77-.241h-8.579a1.493,1.493,0,0,0-.785.241,1.3,1.3,0,0,0-.544.6l-.876,1.782a1.517,1.517,0,0,1-.559.6,1.406,1.406,0,0,1-.77.242h-2.749a.551.551,0,0,1-.528-.242.61.61,0,0,1,.015-.574" transform="translate(513.736 -180.282)" fill="#fff"/>
        <path id="Path_162" data-name="Path 162" d="M-397.892,199.587v1.874a.905.905,0,0,1-.272.664.9.9,0,0,1-.665.271h-14.047a.905.905,0,0,1-.664-.271.905.905,0,0,1-.272-.664V181.219a.906.906,0,0,1,.272-.665.905.905,0,0,1,.664-.271h2.356a.907.907,0,0,1,.665.271.907.907,0,0,1,.271.665v16.495a.9.9,0,0,0,.273.664.9.9,0,0,0,.664.272h9.818a.905.905,0,0,1,.665.272.9.9,0,0,1,.272.665" transform="translate(499.874 -180.283)" fill="#e6ae6e"/>
        <path id="Path_163" data-name="Path 163" d="M-381.133,202.14a8.438,8.438,0,0,1-2.991-1.873,7.939,7.939,0,0,1-1.933-2.931,10.435,10.435,0,0,1-.664-3.837V181.266a.907.907,0,0,1,.272-.665.871.871,0,0,1,.635-.272h2.386a.9.9,0,0,1,.665.272.905.905,0,0,1,.273.665v12.205a6.121,6.121,0,0,0,.544,2.748,5.52,5.52,0,0,0,1.329,1.722,4.487,4.487,0,0,0,1.722.875,8.924,8.924,0,0,0,.891.182,5.26,5.26,0,0,0,.771.06,6.886,6.886,0,0,0,1.632-.242,4.006,4.006,0,0,0,1.722-.875,4.939,4.939,0,0,0,1.359-1.722,6.138,6.138,0,0,0,.544-2.748V181.266a.9.9,0,0,1,.271-.665.906.906,0,0,1,.665-.272h2.356a.9.9,0,0,1,.665.272.9.9,0,0,1,.272.665V193.5a11.6,11.6,0,0,1-.167,2.01,10,10,0,0,1-.5,1.827,8.47,8.47,0,0,1-1.9,2.931,8.8,8.8,0,0,1-2.991,1.873,10.862,10.862,0,0,1-3.927.664,10.62,10.62,0,0,1-3.9-.664" transform="translate(490.154 -180.299)" fill="#e6ae6e"/>
        <path id="Path_164" data-name="Path 164" d="M-346.286,190.721l-7.22-9.606a.517.517,0,0,1-.136-.544c.07-.161.236-.242.5-.242h3.383a1.74,1.74,0,0,1,.8.212,1.838,1.838,0,0,1,.65.544l4.653,6.435a.676.676,0,0,0,.543.331.677.677,0,0,0,.544-.331l4.652-6.435a1.8,1.8,0,0,1,.665-.544,1.826,1.826,0,0,1,.815-.212h3.353c.262,0,.428.081.5.242a.522.522,0,0,1-.136.544l-7.19,9.606a1.249,1.249,0,0,0-.242.755,1.121,1.121,0,0,0,.242.725l7.039,9.4a.577.577,0,0,1,.135.573c-.071.162-.237.242-.5.242h-3.384a1.813,1.813,0,0,1-.816-.212,1.781,1.781,0,0,1-.665-.544l-4.472-6.193a.68.68,0,0,0-.544-.332.678.678,0,0,0-.543.332l-4.472,6.193a1.819,1.819,0,0,1-.649.544,1.732,1.732,0,0,1-.8.212h-3.383q-.393,0-.5-.242a.574.574,0,0,1,.137-.573l7.039-9.4a1.124,1.124,0,0,0,.242-.725,1.253,1.253,0,0,0-.242-.755" transform="translate(478.296 -180.299)" fill="#e6ae6e"/>
        <path id="Path_165" data-name="Path 165" d="M-310.367,202.14a8.43,8.43,0,0,1-2.991-1.873,7.933,7.933,0,0,1-1.934-2.931,10.435,10.435,0,0,1-.664-3.837V181.266a.9.9,0,0,1,.272-.665.872.872,0,0,1,.635-.272h2.386a.905.905,0,0,1,.665.272.905.905,0,0,1,.272.665v12.205a6.12,6.12,0,0,0,.544,2.748,5.528,5.528,0,0,0,1.328,1.722,4.5,4.5,0,0,0,1.722.875,9,9,0,0,0,.891.182,5.253,5.253,0,0,0,.771.06,6.89,6.89,0,0,0,1.632-.242,4.006,4.006,0,0,0,1.722-.875,4.93,4.93,0,0,0,1.359-1.722,6.129,6.129,0,0,0,.544-2.748V181.266a.9.9,0,0,1,.272-.665.906.906,0,0,1,.665-.272h2.356a.9.9,0,0,1,.665.272.9.9,0,0,1,.272.665V193.5a11.663,11.663,0,0,1-.167,2.01,10,10,0,0,1-.5,1.827,8.479,8.479,0,0,1-1.9,2.931,8.794,8.794,0,0,1-2.991,1.873,10.864,10.864,0,0,1-3.927.664,10.62,10.62,0,0,1-3.9-.664" transform="translate(464.763 -180.299)" fill="#e6ae6e"/>
        <path id="Path_166" data-name="Path 166" d="M-274.607,191.611h4.894a3.314,3.314,0,0,0,1.178-.242,3.01,3.01,0,0,0,1.118-.694,4.13,4.13,0,0,0,.785-1.148,3.805,3.805,0,0,0,.3-1.631,5.9,5.9,0,0,0-.121-1.148,3.657,3.657,0,0,0-.181-.649,6.754,6.754,0,0,0-.271-.62,3.137,3.137,0,0,0-1.028-1.027,3.386,3.386,0,0,0-1.782-.423h-4.894a.9.9,0,0,0-.664.272.9.9,0,0,0-.273.665v5.71a.9.9,0,0,0,.273.664.9.9,0,0,0,.664.272M-276.45,202.4h-2.387a.9.9,0,0,1-.665-.272.906.906,0,0,1-.272-.665v-20.24a.905.905,0,0,1,.272-.665.906.906,0,0,1,.665-.272h9.124a8.628,8.628,0,0,1,3.112.544,7.927,7.927,0,0,1,2.387,1.571,6.876,6.876,0,0,1,.906,1.118,7.2,7.2,0,0,1,.665,1.3,8.554,8.554,0,0,1,.544,3.082,7.57,7.57,0,0,1-1.239,4.38,7.023,7.023,0,0,1-2.507,2.3.817.817,0,0,0-.423.5.66.66,0,0,0,.151.619q1.117,1.511,2.129,2.855t2.1,2.855a.717.717,0,0,1,.136.664.465.465,0,0,1-.5.332H-265.3a1.807,1.807,0,0,1-.815-.212,1.936,1.936,0,0,1-.665-.514q-.514-.694-1.012-1.374t-1.012-1.375l-1.994-2.81a1.787,1.787,0,0,0-.664-.544,1.832,1.832,0,0,0-.816-.212h-2.326a.9.9,0,0,0-.664.273.9.9,0,0,0-.273.664v5.165a.93.93,0,0,1-.257.665.852.852,0,0,1-.649.272" transform="translate(451.78 -180.282)" fill="#e6ae6e"/>
        <path id="Path_167" data-name="Path 167" d="M-230.968,181.114q-.333.543-.7,1.133t-.785,1.254q-.543.877-1.1,1.783t-1.133,1.843q-.6.936-1.163,1.858t-1.1,1.8q-.423.665-.8,1.268t-.71,1.179a2.741,2.741,0,0,0-.332.846,4.048,4.048,0,0,0-.121.907v6.495a.9.9,0,0,1-.272.665.9.9,0,0,1-.665.272h-2.386a.854.854,0,0,1-.65-.272.932.932,0,0,1-.256-.665v-6.495a3.616,3.616,0,0,0-.136-.907,3.016,3.016,0,0,0-.348-.846q-.876-1.541-1.8-3.035t-1.889-3.007q-1-1.541-1.933-3.036t-1.812-3.036a.514.514,0,0,1-.076-.558.563.563,0,0,1,.528-.227h3.082a1.63,1.63,0,0,1,.8.227,1.436,1.436,0,0,1,.589.558l1.148,1.933q.573.968,1.178,1.964.573,1,1.148,1.963l1.148,1.933a.534.534,0,0,0,.468.333.6.6,0,0,0,.5-.333c.14-.241.287-.483.438-.725s.307-.493.468-.755l1.45-2.447q.363-.6.71-1.208t.709-1.209q.242-.363.453-.725l.423-.725a1.444,1.444,0,0,1,.589-.558,1.632,1.632,0,0,1,.8-.227h3.082a.527.527,0,0,1,.514.227.573.573,0,0,1-.06.558" transform="translate(441.523 -180.299)" fill="#e6ae6e"/>
        <path id="Path_168" data-name="Path 168" d="M-451.233,233.937c1.242,0,1.844-.689,1.844-1.61,0-1-.626-1.647-1.868-1.647h-1.057v3.257Zm.025-4.3c1.929,0,3.1,1.143,3.1,2.692a2.719,2.719,0,0,1-3.023,2.655h-1.18v2.937h-1.266v-8.284Z" transform="translate(514.143 -197.99)" fill="#fff"/>
        <path id="Path_169" data-name="Path 169" d="M-441.771,233.715h1.143a1.42,1.42,0,0,0,1.6-1.511c0-.983-.565-1.512-1.659-1.512h-1.082Zm1.094,1.057h-1.094v3.146h-1.266v-8.284h2.31c1.93,0,2.974,1.02,2.974,2.58a2.4,2.4,0,0,1-1.634,2.36l2.163,3.343h-1.513Z" transform="translate(510.36 -197.99)" fill="#fff"/>
        <path id="Path_170" data-name="Path 170" d="M-427.368,236.862v1.057h-4.781v-8.284h4.72v1.057h-3.454v2.556h3.06V234.3h-3.06v2.557Z" transform="translate(506.454 -197.99)" fill="#fff"/>
        <path id="Path_171" data-name="Path 171" d="M-417.926,231.187a3.76,3.76,0,0,0-1.868-.516c-.909,0-1.45.442-1.45,1.093,0,.726.713,1.057,1.548,1.426,1.044.455,2.2.984,2.2,2.434,0,1.5-1.18,2.348-2.778,2.348a4.62,4.62,0,0,1-2.261-.53v-1.315a3.809,3.809,0,0,0,2.249.726c.885,0,1.463-.43,1.463-1.18,0-.713-.689-1.032-1.549-1.413-1.02-.467-2.212-.983-2.212-2.433s1.168-2.286,2.753-2.286a4.424,4.424,0,0,1,1.906.392Z" transform="translate(503.022 -197.956)" fill="#fff"/>
        <path id="Path_172" data-name="Path 172" d="M-407.683,230.692h-2.176v7.227h-1.266v-7.227h-2.163v-1.057h5.6Z" transform="translate(499.686 -197.99)" fill="#fff"/>
        <rect id="Rectangle_194" data-name="Rectangle 194" width="1.254" height="8.284" transform="translate(93.269 31.645)" fill="#fff"/>
        <path id="Path_173" data-name="Path 173" d="M-391.189,237.074h-.012l.012.086a4.656,4.656,0,0,1-2.679.775,4.01,4.01,0,0,1-4.314-4.252,4.088,4.088,0,0,1,4.24-4.277,4.95,4.95,0,0,1,2.409.553v1.3a4.406,4.406,0,0,0-2.36-.664,2.86,2.86,0,0,0-2.962,3.085,2.816,2.816,0,0,0,3.024,3.073,3.7,3.7,0,0,0,1.4-.271V234.2h-1.684V233.1h2.925Z" transform="translate(494.266 -197.908)" fill="#fff"/>
        <path id="Path_174" data-name="Path 174" d="M-379.83,236.862v1.057h-4.781v-8.284h4.72v1.057h-3.455v2.556h3.06V234.3h-3.06v2.557Z" transform="translate(489.397 -197.99)" fill="#fff"/>
        <path id="Path_175" data-name="Path 175" d="M-363.788,229.635v8.284h-1.266v-3.625h-3.725v3.625h-1.266v-8.284h1.266V233.2h3.725v-3.564Z" transform="translate(484.17 -197.99)" fill="#fff"/>
        <path id="Path_176" data-name="Path 176" d="M-354.176,236.749c1.561,0,2.47-1.18,2.47-3.1s-.909-3.085-2.482-3.085c-1.536,0-2.471,1.18-2.471,3.085s.984,3.1,2.483,3.1m-.012-7.363c2.384,0,3.81,1.7,3.81,4.265s-1.463,4.277-3.8,4.277c-2.311,0-3.81-1.7-3.81-4.277s1.475-4.265,3.8-4.265" transform="translate(479.844 -197.901)" fill="#fff"/>
        <path id="Path_177" data-name="Path 177" d="M-338.876,229.635h1.266v5.113c0,2.188-1.229,3.282-3.146,3.282a2.875,2.875,0,0,1-3.121-3.184v-5.212h1.266v5.2c0,1.5.824,2.028,1.856,2.028,1.082,0,1.881-.528,1.881-2.09Z" transform="translate(474.782 -197.99)" fill="#fff"/>
        <path id="Path_178" data-name="Path 178" d="M-326.971,231.187a3.762,3.762,0,0,0-1.868-.516c-.909,0-1.45.442-1.45,1.093,0,.726.713,1.057,1.548,1.426,1.045.455,2.2.984,2.2,2.434,0,1.5-1.18,2.348-2.778,2.348a4.62,4.62,0,0,1-2.261-.53v-1.315a3.808,3.808,0,0,0,2.249.726c.885,0,1.463-.43,1.463-1.18,0-.713-.689-1.032-1.549-1.413-1.02-.467-2.212-.983-2.212-2.433s1.168-2.286,2.753-2.286a4.424,4.424,0,0,1,1.906.392Z" transform="translate(470.387 -197.956)" fill="#fff"/>
        <path id="Path_179" data-name="Path 179" d="M-316.574,236.862v1.057h-4.781v-8.284h4.72v1.057h-3.454v2.556h3.06V234.3h-3.06v2.557Z" transform="translate(466.7 -197.99)" fill="#fff"/>
      </g>
    </g>
    <g id="Group_74" data-name="Group 74" transform="translate(-462.656 113.668)">
      <g id="Group_73" data-name="Group 73" clip-path="url(#clip-path-2)">
        <path id="Path_180" data-name="Path 180" d="M-367.452,131.838a5.551,5.551,0,0,1-3.95-1.636,5.622,5.622,0,0,1-1.538-4.987,5.615,5.615,0,0,1-1.038.1,5.549,5.549,0,0,1-3.949-1.636,5.592,5.592,0,0,1,0-7.9,5.549,5.549,0,0,1,3.95-1.636,5.549,5.549,0,0,1,3.949,1.636,5.622,5.622,0,0,1,1.538,4.987,5.615,5.615,0,0,1,1.038-.1A5.548,5.548,0,0,1-363.5,122.3a5.592,5.592,0,0,1,0,7.9,5.549,5.549,0,0,1-3.949,1.636m-4.827-7.753a.471.471,0,0,1,.332.137.47.47,0,0,1,.111.487,4.673,4.673,0,0,0,1.1,4.829,4.616,4.616,0,0,0,3.285,1.361,4.617,4.617,0,0,0,3.285-1.361,4.653,4.653,0,0,0,0-6.572,4.617,4.617,0,0,0-3.285-1.361,4.657,4.657,0,0,0-1.543.262.468.468,0,0,1-.487-.111.467.467,0,0,1-.111-.487,4.675,4.675,0,0,0-1.1-4.829,4.616,4.616,0,0,0-3.285-1.361,4.617,4.617,0,0,0-3.286,1.361,4.652,4.652,0,0,0,0,6.571,4.617,4.617,0,0,0,3.285,1.361,4.645,4.645,0,0,0,1.544-.263.464.464,0,0,1,.155-.026" transform="translate(402.207 -113.838)" fill="#e6ae6e"/>
        <path id="Path_181" data-name="Path 181" d="M-358.742,123.311a.466.466,0,0,1-.331-.137.47.47,0,0,1,0-.664c1.707-1.707,1.548-4.25-.387-6.184s-4.478-2.093-6.185-.387a.469.469,0,0,1-.664,0,.469.469,0,0,1,0-.664,4.774,4.774,0,0,1,3.793-1.441,6.02,6.02,0,0,1,3.719,1.828,6.018,6.018,0,0,1,1.827,3.718,4.772,4.772,0,0,1-1.441,3.794.468.468,0,0,1-.332.137" transform="translate(397.502 -113.722)" fill="#e6ae6e"/>
        <path id="Path_182" data-name="Path 182" d="M-375.015,138.187a.467.467,0,0,1-.328-.134.469.469,0,0,1-.007-.664,3.911,3.911,0,0,1,3.571-1.033,6.574,6.574,0,0,1,1.881.61.469.469,0,0,1,.191.635.47.47,0,0,1-.635.192c-.026-.014-2.706-1.412-4.336.253a.467.467,0,0,1-.335.141" transform="translate(400.745 -121.784)" fill="#e6ae6e"/>
        <path id="Path_183" data-name="Path 183" d="M-404.828,160.569a.471.471,0,0,1-.332-.137l-1.077-1.077a.469.469,0,0,1,0-.664.469.469,0,0,1,.664,0l.744.744,13.077-13.158a.469.469,0,0,1,.664,0,.469.469,0,0,1,0,.664L-404.5,160.43a.468.468,0,0,1-.332.139Z" transform="translate(411.828 -125.318)" fill="#e6ae6e"/>
        <path id="Path_184" data-name="Path 184" d="M-381.6,142.972a.469.469,0,0,1-.331-.137.469.469,0,0,1,0-.664l4.222-4.248a.469.469,0,0,1,.664,0,.469.469,0,0,1,0,.664l-4.222,4.249a.468.468,0,0,1-.333.139" transform="translate(403.107 -122.321)" fill="#e6ae6e"/>
        <path id="Path_185" data-name="Path 185" d="M-376.695,134.306a.466.466,0,0,1-.335-.141.469.469,0,0,1,.007-.664c1.665-1.63.267-4.31.253-4.337a.469.469,0,0,1,.192-.635.469.469,0,0,1,.635.191,6.567,6.567,0,0,1,.61,1.881,3.911,3.911,0,0,1-1.033,3.571.468.468,0,0,1-.328.134" transform="translate(401.347 -118.98)" fill="#e6ae6e"/>
        <path id="Path_186" data-name="Path 186" d="M-405.906,158.9a.467.467,0,0,1-.331-.137.469.469,0,0,1,0-.664l13.387-13.471a.47.47,0,0,1,.664,0,.47.47,0,0,1,0,.664l-13.387,13.471a.468.468,0,0,1-.333.139" transform="translate(411.828 -124.727)" fill="#e6ae6e"/>
        <path id="Path_187" data-name="Path 187" d="M-383.247,141.272a.468.468,0,0,1-.331-.137.469.469,0,0,1,0-.664l4.2-4.227a.47.47,0,0,1,.664,0,.47.47,0,0,1,0,.664l-4.2,4.227a.467.467,0,0,1-.333.138" transform="translate(403.698 -121.719)" fill="#e6ae6e"/>
        <path id="Path_188" data-name="Path 188" d="M-405.4,161a.469.469,0,0,1-.331-.137l-2.141-2.141a.469.469,0,0,1,0-.664l4.536-4.536a.469.469,0,0,1,.664,0l2.14,2.141a.467.467,0,0,1,.138.331.467.467,0,0,1-.138.332l-4.536,4.536a.469.469,0,0,1-.332.137m-1.477-2.61,1.477,1.477,3.873-3.872-1.477-1.477Z" transform="translate(412.417 -127.919)" fill="#e6ae6e"/>
        <path id="Path_189" data-name="Path 189" d="M-410.279,158.307a.469.469,0,0,1-.331-.137l-1.849-1.849a.469.469,0,0,1,0-.664l6.716-6.715a.469.469,0,0,1,.664,0l1.849,1.849a.472.472,0,0,1,.137.332.471.471,0,0,1-.137.332l-6.715,6.715a.47.47,0,0,1-.332.137m-1.185-2.318,1.185,1.185,6.052-6.052-1.186-1.185Z" transform="translate(414.061 -126.275)" fill="#e6ae6e"/>
        <path id="Path_190" data-name="Path 190" d="M-401.158,150.24a.468.468,0,0,1-.332-.137l-2.257-2.258a.469.469,0,0,1,0-.664.469.469,0,0,1,.664,0l2.258,2.258a.47.47,0,0,1,0,.664.468.468,0,0,1-.332.137" transform="translate(410.935 -125.643)" fill="#e6ae6e"/>
        <path id="Path_191" data-name="Path 191" d="M-411.631,160.713a.471.471,0,0,1-.332-.137l-2.257-2.258a.469.469,0,0,1,0-.664.469.469,0,0,1,.664,0l2.258,2.257a.471.471,0,0,1,0,.664.471.471,0,0,1-.332.137" transform="translate(414.693 -129.401)" fill="#e6ae6e"/>
        <path id="Path_192" data-name="Path 192" d="M-373.206,124.238a3.714,3.714,0,0,1-2.644-1.1,3.744,3.744,0,0,1,0-5.289,3.716,3.716,0,0,1,2.644-1.1,3.717,3.717,0,0,1,2.644,1.1,3.744,3.744,0,0,1,0,5.289,3.714,3.714,0,0,1-2.644,1.1m0-6.54a2.782,2.782,0,0,0-1.981.82,2.8,2.8,0,0,0,0,3.961,2.783,2.783,0,0,0,1.981.821,2.783,2.783,0,0,0,1.981-.821,2.8,2.8,0,0,0,0-3.961,2.783,2.783,0,0,0-1.981-.82" transform="translate(401.268 -114.777)" fill="#e6ae6e"/>
        <path id="Path_193" data-name="Path 193" d="M-362.9,134.542a3.714,3.714,0,0,1-2.644-1.1,3.716,3.716,0,0,1-1.1-2.644,3.717,3.717,0,0,1,1.1-2.644,3.717,3.717,0,0,1,2.644-1.1,3.717,3.717,0,0,1,2.644,1.1,3.744,3.744,0,0,1,0,5.289,3.714,3.714,0,0,1-2.644,1.1m0-6.54a2.782,2.782,0,0,0-1.981.82,2.782,2.782,0,0,0-.82,1.981,2.782,2.782,0,0,0,.82,1.981,2.783,2.783,0,0,0,1.981.821,2.783,2.783,0,0,0,1.981-.821,2.8,2.8,0,0,0,0-3.961A2.782,2.782,0,0,0-362.9,128" transform="translate(397.572 -118.474)" fill="#e6ae6e"/>
        <path id="Path_194" data-name="Path 194" d="M-359.584,123.3a.467.467,0,0,1-.306-.113.47.47,0,0,1-.05-.662,2.811,2.811,0,0,0-.145-3.8,2.812,2.812,0,0,0-3.8-.147.47.47,0,0,1-.662-.05.469.469,0,0,1,.051-.662,3.754,3.754,0,0,1,5.078.194,3.754,3.754,0,0,1,.193,5.08.466.466,0,0,1-.356.164" transform="translate(396.862 -114.85)" fill="#e6ae6e"/>
        <path id="Path_195" data-name="Path 195" d="M-408.449,131.838A5.548,5.548,0,0,1-412.4,130.2a5.592,5.592,0,0,1,0-7.9,5.548,5.548,0,0,1,3.949-1.636,5.615,5.615,0,0,1,1.038.1,5.622,5.622,0,0,1,1.538-4.987,5.549,5.549,0,0,1,3.95-1.636,5.549,5.549,0,0,1,3.949,1.636,5.592,5.592,0,0,1,0,7.9,5.549,5.549,0,0,1-3.949,1.636,5.61,5.61,0,0,1-1.038-.1A5.621,5.621,0,0,1-404.5,130.2a5.548,5.548,0,0,1-3.949,1.636m0-10.232a4.617,4.617,0,0,0-3.285,1.361,4.652,4.652,0,0,0,0,6.572,4.617,4.617,0,0,0,3.285,1.361,4.614,4.614,0,0,0,3.286-1.361,4.673,4.673,0,0,0,1.1-4.829.471.471,0,0,1,.111-.488.47.47,0,0,1,.487-.111,4.645,4.645,0,0,0,1.544.263,4.619,4.619,0,0,0,3.285-1.361,4.653,4.653,0,0,0,0-6.572,4.616,4.616,0,0,0-3.285-1.361,4.616,4.616,0,0,0-3.286,1.361,4.675,4.675,0,0,0-1.1,4.829.468.468,0,0,1-.111.487.468.468,0,0,1-.487.112,4.641,4.641,0,0,0-1.543-.263" transform="translate(414.575 -113.838)" fill="#e6ae6e"/>
        <path id="Path_196" data-name="Path 196" d="M-412.57,123.311a.468.468,0,0,1-.332-.137,4.772,4.772,0,0,1-1.441-3.794,6.021,6.021,0,0,1,1.827-3.718,6.02,6.02,0,0,1,3.719-1.828A4.775,4.775,0,0,1-405,115.275a.469.469,0,0,1,0,.664.469.469,0,0,1-.664,0c-1.707-1.707-4.25-1.548-6.185.387s-2.094,4.477-.386,6.184a.471.471,0,0,1,0,.664.468.468,0,0,1-.332.137" transform="translate(414.693 -113.722)" fill="#e6ae6e"/>
        <path id="Path_197" data-name="Path 197" d="M-394.249,138.187a.466.466,0,0,1-.335-.141c-1.63-1.665-4.311-.267-4.338-.253a.469.469,0,0,1-.634-.192.469.469,0,0,1,.191-.635,6.566,6.566,0,0,1,1.881-.61,3.911,3.911,0,0,1,3.571,1.033.469.469,0,0,1-.007.664.468.468,0,0,1-.328.134" transform="translate(409.402 -121.784)" fill="#e6ae6e"/>
        <path id="Path_198" data-name="Path 198" d="M-372.781,157.572h0a.468.468,0,0,1-.332-.139l-18.73-18.847a.47.47,0,0,1,0-.664.47.47,0,0,1,.664,0l18.4,18.513.744-.744a.469.469,0,0,1,.664,0,.469.469,0,0,1,0,.664l-1.077,1.077a.471.471,0,0,1-.332.137" transform="translate(406.663 -122.321)" fill="#e6ae6e"/>
        <path id="Path_199" data-name="Path 199" d="M-390.368,134.306a.468.468,0,0,1-.328-.134,3.909,3.909,0,0,1-1.033-3.571,6.567,6.567,0,0,1,.61-1.881.469.469,0,0,1,.635-.191.47.47,0,0,1,.192.635c-.014.026-1.412,2.706.253,4.336a.469.469,0,0,1,.007.664.466.466,0,0,1-.335.141" transform="translate(406.598 -118.98)" fill="#e6ae6e"/>
        <path id="Path_200" data-name="Path 200" d="M-371.1,155.892a.468.468,0,0,1-.333-.139l-18.73-18.847a.47.47,0,0,1,0-.664.47.47,0,0,1,.664,0l18.73,18.847a.469.469,0,0,1,0,.664.467.467,0,0,1-.331.137" transform="translate(406.061 -121.719)" fill="#e6ae6e"/>
        <path id="Path_201" data-name="Path 201" d="M-364.858,161a.469.469,0,0,1-.331-.137l-4.536-4.536a.469.469,0,0,1-.137-.332.471.471,0,0,1,.137-.332l2.141-2.14a.469.469,0,0,1,.664,0l4.536,4.536a.469.469,0,0,1,0,.664l-2.14,2.141a.471.471,0,0,1-.332.137M-368.73,156l3.872,3.872,1.477-1.477-3.873-3.873Z" transform="translate(398.728 -127.919)" fill="#e6ae6e"/>
        <path id="Path_202" data-name="Path 202" d="M-361.039,158.307a.469.469,0,0,1-.331-.137l-6.716-6.715a.471.471,0,0,1-.137-.332.472.472,0,0,1,.137-.332l1.849-1.849a.469.469,0,0,1,.664,0l6.715,6.715a.469.469,0,0,1,0,.664l-1.849,1.849a.47.47,0,0,1-.332.137m-6.052-7.185,6.052,6.052,1.185-1.185-6.052-6.052Z" transform="translate(398.14 -126.275)" fill="#e6ae6e"/>
        <path id="Path_203" data-name="Path 203" d="M-366.631,150.24a.468.468,0,0,1-.332-.137.47.47,0,0,1,0-.664l2.258-2.258a.469.469,0,0,1,.664,0,.469.469,0,0,1,0,.664L-366.3,150.1a.466.466,0,0,1-.331.137" transform="translate(397.736 -125.643)" fill="#e6ae6e"/>
        <path id="Path_204" data-name="Path 204" d="M-356.157,160.713a.469.469,0,0,1-.331-.137.47.47,0,0,1,0-.664l2.257-2.257a.469.469,0,0,1,.664,0,.469.469,0,0,1,0,.664l-2.257,2.258a.471.471,0,0,1-.332.137" transform="translate(393.978 -129.401)" fill="#e6ae6e"/>
        <path id="Path_205" data-name="Path 205" d="M-396.978,124.238a3.714,3.714,0,0,1-2.644-1.1,3.744,3.744,0,0,1,0-5.289,3.717,3.717,0,0,1,2.644-1.1,3.717,3.717,0,0,1,2.644,1.1,3.744,3.744,0,0,1,0,5.289,3.714,3.714,0,0,1-2.644,1.1m0-6.54a2.782,2.782,0,0,0-1.981.82,2.8,2.8,0,0,0,0,3.961,2.783,2.783,0,0,0,1.981.821,2.783,2.783,0,0,0,1.981-.821,2.8,2.8,0,0,0,0-3.961,2.782,2.782,0,0,0-1.981-.82" transform="translate(409.798 -114.777)" fill="#e6ae6e"/>
        <path id="Path_206" data-name="Path 206" d="M-407.282,134.542a3.714,3.714,0,0,1-2.644-1.1,3.744,3.744,0,0,1,0-5.289,3.717,3.717,0,0,1,2.644-1.1,3.717,3.717,0,0,1,2.644,1.1,3.714,3.714,0,0,1,1.1,2.644,3.713,3.713,0,0,1-1.1,2.644,3.714,3.714,0,0,1-2.644,1.1m0-6.54a2.782,2.782,0,0,0-1.981.82,2.8,2.8,0,0,0,0,3.961,2.783,2.783,0,0,0,1.981.821,2.783,2.783,0,0,0,1.981-.821,2.782,2.782,0,0,0,.82-1.981,2.782,2.782,0,0,0-.82-1.981,2.782,2.782,0,0,0-1.981-.82" transform="translate(413.495 -118.474)" fill="#e6ae6e"/>
        <path id="Path_207" data-name="Path 207" d="M-409.959,123.3a.467.467,0,0,1-.356-.163,3.754,3.754,0,0,1,.193-5.08,3.754,3.754,0,0,1,5.078-.194.469.469,0,0,1,.051.662.47.47,0,0,1-.662.05,2.812,2.812,0,0,0-3.8.147,2.811,2.811,0,0,0-.145,3.8.47.47,0,0,1-.05.662.467.467,0,0,1-.306.113" transform="translate(413.564 -114.85)" fill="#e6ae6e"/>
      </g>
    </g>
    <path id="Path_208" data-name="Path 208" d="M-361.83,234.483a.279.279,0,0,0,.133.195c.076.055.147.1.215.149s.137.087.205.128q.165.1.339.19c.117.058.236.112.359.159a3.685,3.685,0,0,0,.81.236,5.115,5.115,0,0,0,1.036.092,4.531,4.531,0,0,0,1.159-.144,2.492,2.492,0,0,0,.9-.431,1.838,1.838,0,0,0,.585-.708,2.375,2.375,0,0,0,.205-1.016,2.182,2.182,0,0,0-.154-.862,1.722,1.722,0,0,0-.39-.6c-.041-.041-.083-.08-.128-.118a1.182,1.182,0,0,0-.149-.108,2.064,2.064,0,0,0-.272-.164q-.159-.082-.282-.133l-.169-.062a1.732,1.732,0,0,0-.169-.051c-.1-.034-.205-.063-.308-.087s-.2-.043-.3-.056a2.606,2.606,0,0,1-.267-.051c-.082-.021-.16-.038-.236-.051-.1-.028-.193-.051-.292-.072s-.2-.044-.3-.072-.2-.055-.292-.082-.183-.058-.272-.092a1.328,1.328,0,0,1-.421-.256.5.5,0,0,1-.164-.38.6.6,0,0,1,.133-.39.933.933,0,0,1,.159-.144,1.563,1.563,0,0,1,.19-.113,2.119,2.119,0,0,1,.451-.154c.076-.013.149-.024.221-.031s.138-.01.2-.01a2.733,2.733,0,0,1,1.036.195,4,4,0,0,1,.759.39.334.334,0,0,0,.241.051.311.311,0,0,0,.21-.133l.431-.616a.3.3,0,0,0,.062-.236.311.311,0,0,0-.133-.205c-.075-.041-.144-.082-.205-.123s-.126-.082-.195-.123q-.143-.082-.3-.159a3.278,3.278,0,0,0-.318-.138c-.109-.034-.221-.067-.333-.1a3.578,3.578,0,0,0-.354-.077,5.153,5.153,0,0,0-.841-.062,4.754,4.754,0,0,0-.985.1,3.1,3.1,0,0,0-.923.349,2.108,2.108,0,0,0-.677.687,2.126,2.126,0,0,0-.267,1.1,1.985,1.985,0,0,0,.144.78,1.686,1.686,0,0,0,.4.574,2.12,2.12,0,0,0,.554.4,2.94,2.94,0,0,0,.626.256,3.111,3.111,0,0,0,.616.154c.1.021.188.04.277.056l.246.046c.117.021.228.041.333.062s.21.045.313.072.209.055.3.082a2.1,2.1,0,0,1,.246.092,1.2,1.2,0,0,1,.369.256.6.6,0,0,1,.144.39.7.7,0,0,1-.092.349,1,1,0,0,1-.277.318,1.388,1.388,0,0,1-.451.226,1.878,1.878,0,0,1-.616.092,2.82,2.82,0,0,1-1.262-.287,8.46,8.46,0,0,1-.9-.492.33.33,0,0,0-.236-.051.281.281,0,0,0-.195.133l-.431.636a.33.33,0,0,0-.051.236m-5.3-5.14a.308.308,0,0,1,.226-.092h3.457a.307.307,0,0,0,.226-.092.307.307,0,0,0,.092-.226V228.3a.308.308,0,0,0-.092-.226.307.307,0,0,0-.226-.092h-4.894a.308.308,0,0,0-.226.092.308.308,0,0,0-.092.226v6.874a.307.307,0,0,0,.092.226.308.308,0,0,0,.226.092h4.894a.307.307,0,0,0,.226-.092.307.307,0,0,0,.092-.226v-.657a.307.307,0,0,0-.092-.226.307.307,0,0,0-.226-.092h-3.457a.308.308,0,0,1-.226-.092.307.307,0,0,1-.092-.226v-1.129a.308.308,0,0,1,.092-.226.308.308,0,0,1,.226-.092h3a.307.307,0,0,0,.226-.092.307.307,0,0,0,.092-.226v-.667a.308.308,0,0,0-.092-.226.307.307,0,0,0-.226-.092h-3a.308.308,0,0,1-.226-.092.307.307,0,0,1-.092-.226v-1.241a.307.307,0,0,1,.092-.226M-370.6,235.4a.307.307,0,0,0,.092-.226v-6.863a.308.308,0,0,0-.092-.226.307.307,0,0,0-.226-.092h-.81a.291.291,0,0,0-.221.092.319.319,0,0,0-.087.226v6.863a.318.318,0,0,0,.087.226.291.291,0,0,0,.221.092h.81a.307.307,0,0,0,.226-.092m-2.626-6.238a.307.307,0,0,0,.093-.226V228.3a.308.308,0,0,0-.093-.226.307.307,0,0,0-.226-.092h-5.1a.308.308,0,0,0-.226.092.31.31,0,0,0-.092.226v.636a.309.309,0,0,0,.092.226.308.308,0,0,0,.226.092h1.518a.307.307,0,0,1,.226.092.307.307,0,0,1,.092.226v5.6a.307.307,0,0,0,.092.226.309.309,0,0,0,.226.092h.8a.307.307,0,0,0,.226-.092.307.307,0,0,0,.093-.226v-5.6a.306.306,0,0,1,.092-.226.308.308,0,0,1,.226-.092h1.508a.307.307,0,0,0,.226-.092m-10.73,2.575a.307.307,0,0,1-.092-.226v-1.939a.307.307,0,0,1,.092-.226.307.307,0,0,1,.226-.092h1.662a1.152,1.152,0,0,1,.605.144,1.073,1.073,0,0,1,.349.349c.034.069.065.138.092.21a1.329,1.329,0,0,1,.062.221,2.028,2.028,0,0,1,.041.39,1.3,1.3,0,0,1-.1.554,1.4,1.4,0,0,1-.267.39,1.022,1.022,0,0,1-.38.236,1.12,1.12,0,0,1-.4.082h-1.662a.307.307,0,0,1-.226-.092m-.18,3.663a.318.318,0,0,0,.087-.226v-1.754a.307.307,0,0,1,.092-.226.307.307,0,0,1,.226-.092h.79a.627.627,0,0,1,.277.072.619.619,0,0,1,.226.185l.677.954.344.467q.169.231.344.467a.648.648,0,0,0,.226.174.614.614,0,0,0,.277.072h1.036a.158.158,0,0,0,.169-.113.245.245,0,0,0-.046-.226q-.369-.513-.713-.969t-.723-.97a.224.224,0,0,1-.051-.21.276.276,0,0,1,.144-.169,2.39,2.39,0,0,0,.852-.78,2.574,2.574,0,0,0,.421-1.488,2.9,2.9,0,0,0-.185-1.046,2.483,2.483,0,0,0-.226-.441,2.385,2.385,0,0,0-.308-.38,2.7,2.7,0,0,0-.81-.533,2.934,2.934,0,0,0-1.057-.185h-3.1a.307.307,0,0,0-.226.092.308.308,0,0,0-.092.226v6.874a.307.307,0,0,0,.092.226.307.307,0,0,0,.226.092h.81a.291.291,0,0,0,.221-.092m-6.827-6.053a.307.307,0,0,1,.226-.092h3.457a.308.308,0,0,0,.226-.092.307.307,0,0,0,.092-.226V228.3a.308.308,0,0,0-.092-.226.308.308,0,0,0-.226-.092h-4.894a.307.307,0,0,0-.226.092.308.308,0,0,0-.092.226v6.874a.307.307,0,0,0,.092.226.307.307,0,0,0,.226.092h4.894a.308.308,0,0,0,.226-.092.307.307,0,0,0,.092-.226v-.657a.307.307,0,0,0-.092-.226.308.308,0,0,0-.226-.092h-3.457a.307.307,0,0,1-.226-.092.307.307,0,0,1-.092-.226v-1.129a.308.308,0,0,1,.092-.226.307.307,0,0,1,.226-.092h3a.308.308,0,0,0,.226-.092.307.307,0,0,0,.092-.226v-.667a.308.308,0,0,0-.092-.226.308.308,0,0,0-.226-.092h-3a.307.307,0,0,1-.226-.092.307.307,0,0,1-.092-.226v-1.241a.307.307,0,0,1,.092-.226m-5.14,2.616h-1.59a.307.307,0,0,1-.226-.092.307.307,0,0,1-.092-.226v-2.072a.307.307,0,0,1,.092-.226.307.307,0,0,1,.226-.092h1.436a1.32,1.32,0,0,1,.6.123,1.23,1.23,0,0,1,.431.318,1.258,1.258,0,0,1,.267.441,1.568,1.568,0,0,1,.092.513,1.567,1.567,0,0,1-.072.492,1.111,1.111,0,0,1-.087.221,1.381,1.381,0,0,1-.128.2,1.033,1.033,0,0,1-.39.287,1.308,1.308,0,0,1-.554.113m0-3.981h-3.026a.307.307,0,0,0-.226.092.308.308,0,0,0-.092.226v6.874a.307.307,0,0,0,.092.226.307.307,0,0,0,.226.092h.81a.291.291,0,0,0,.221-.092.318.318,0,0,0,.087-.226v-1.6a.308.308,0,0,1,.092-.226.307.307,0,0,1,.226-.092h1.354a3.71,3.71,0,0,0,1.272-.205,2.461,2.461,0,0,0,.9-.554,2.3,2.3,0,0,0,.544-.821,2.789,2.789,0,0,0,.185-1.026,2.749,2.749,0,0,0-.205-1.046,4.222,4.222,0,0,0-.251-.451,2.079,2.079,0,0,0-.323-.39,2.794,2.794,0,0,0-.841-.574,2.749,2.749,0,0,0-1.046-.205m-7.553,1.411a2.609,2.609,0,0,1,.778.559,2.641,2.641,0,0,1,.527.816,2.487,2.487,0,0,1,.195.969,2.477,2.477,0,0,1-.195.975,2.719,2.719,0,0,1-.527.816,2.547,2.547,0,0,1-.778.564,2.211,2.211,0,0,1-.957.21,2.211,2.211,0,0,1-.957-.21,2.55,2.55,0,0,1-.778-.564,2.719,2.719,0,0,1-.527-.816,2.487,2.487,0,0,1-.194-.975,2.5,2.5,0,0,1,.194-.969,2.641,2.641,0,0,1,.527-.816,2.611,2.611,0,0,1,.778-.559,2.221,2.221,0,0,1,.957-.21,2.22,2.22,0,0,1,.957.21m.556,5.935a3.965,3.965,0,0,0,1.236-.836,3.968,3.968,0,0,0,.836-1.236,3.766,3.766,0,0,0,.308-1.518,3.779,3.779,0,0,0-.308-1.513,3.954,3.954,0,0,0-.836-1.241,3.976,3.976,0,0,0-1.236-.836,3.768,3.768,0,0,0-1.518-.308,3.741,3.741,0,0,0-1.508.308,3.968,3.968,0,0,0-1.236.836,3.943,3.943,0,0,0-.836,1.241,3.779,3.779,0,0,0-.308,1.513,3.765,3.765,0,0,0,.308,1.518,3.957,3.957,0,0,0,.836,1.236,3.956,3.956,0,0,0,1.236.836,3.741,3.741,0,0,0,1.508.308,3.768,3.768,0,0,0,1.518-.308m-10.885-3.591a.307.307,0,0,1-.092-.226v-1.939a.307.307,0,0,1,.092-.226.307.307,0,0,1,.226-.092h1.662a1.151,1.151,0,0,1,.605.144,1.066,1.066,0,0,1,.349.349c.034.069.065.138.092.21a1.213,1.213,0,0,1,.062.221,1.976,1.976,0,0,1,.041.39,1.289,1.289,0,0,1-.1.554,1.387,1.387,0,0,1-.267.39,1.017,1.017,0,0,1-.38.236,1.12,1.12,0,0,1-.4.082h-1.662a.307.307,0,0,1-.226-.092m-.18,3.663a.315.315,0,0,0,.087-.226v-1.754a.307.307,0,0,1,.092-.226.307.307,0,0,1,.226-.092h.79a.623.623,0,0,1,.277.072.613.613,0,0,1,.226.185l.677.954.344.467.344.467a.654.654,0,0,0,.226.174.614.614,0,0,0,.277.072h1.036a.157.157,0,0,0,.169-.113.245.245,0,0,0-.046-.226q-.369-.513-.713-.969t-.723-.97a.225.225,0,0,1-.051-.21.278.278,0,0,1,.144-.169,2.385,2.385,0,0,0,.852-.78,2.574,2.574,0,0,0,.421-1.488,2.9,2.9,0,0,0-.185-1.046,2.443,2.443,0,0,0-.226-.441,2.387,2.387,0,0,0-.308-.38,2.689,2.689,0,0,0-.81-.533,2.931,2.931,0,0,0-1.057-.185h-3.1a.307.307,0,0,0-.226.092.308.308,0,0,0-.092.226v6.874a.307.307,0,0,0,.092.226.307.307,0,0,0,.226.092h.81a.29.29,0,0,0,.221-.092m-4.96-3.437h-1.59a.307.307,0,0,1-.226-.092.307.307,0,0,1-.092-.226v-2.072a.307.307,0,0,1,.092-.226.307.307,0,0,1,.226-.092h1.436a1.318,1.318,0,0,1,.6.123,1.23,1.23,0,0,1,.431.318,1.258,1.258,0,0,1,.267.441,1.568,1.568,0,0,1,.092.513,1.549,1.549,0,0,1-.072.492,1.074,1.074,0,0,1-.087.221,1.331,1.331,0,0,1-.128.2,1.033,1.033,0,0,1-.39.287,1.308,1.308,0,0,1-.554.113m0-3.981h-3.026a.307.307,0,0,0-.226.092.308.308,0,0,0-.092.226v6.874a.307.307,0,0,0,.092.226.307.307,0,0,0,.226.092h.81a.29.29,0,0,0,.221-.092.315.315,0,0,0,.087-.226v-1.6a.308.308,0,0,1,.092-.226.307.307,0,0,1,.226-.092h1.354a3.711,3.711,0,0,0,1.272-.205,2.461,2.461,0,0,0,.9-.554,2.3,2.3,0,0,0,.544-.821,2.789,2.789,0,0,0,.185-1.026,2.749,2.749,0,0,0-.205-1.046,4.1,4.1,0,0,0-.251-.451,2.078,2.078,0,0,0-.323-.39,2.786,2.786,0,0,0-.841-.574,2.749,2.749,0,0,0-1.046-.205m-12.331,1.364a.307.307,0,0,1,.226-.092h3.457a.307.307,0,0,0,.226-.092.307.307,0,0,0,.092-.226V228.3a.308.308,0,0,0-.092-.226.307.307,0,0,0-.226-.092h-4.894a.307.307,0,0,0-.226.092.308.308,0,0,0-.092.226v6.874a.307.307,0,0,0,.092.226.307.307,0,0,0,.226.092h4.894a.307.307,0,0,0,.226-.092.307.307,0,0,0,.092-.226v-.657a.307.307,0,0,0-.092-.226.307.307,0,0,0-.226-.092h-3.457a.307.307,0,0,1-.226-.092.307.307,0,0,1-.092-.226v-1.129a.308.308,0,0,1,.092-.226.307.307,0,0,1,.226-.092h3a.307.307,0,0,0,.226-.092.307.307,0,0,0,.092-.226v-.667a.308.308,0,0,0-.092-.226.307.307,0,0,0-.226-.092h-3a.307.307,0,0,1-.226-.092.307.307,0,0,1-.092-.226v-1.241a.307.307,0,0,1,.092-.226m-2.821,2.134a.307.307,0,0,0-.226-.092H-438.2a.308.308,0,0,0-.226.092.307.307,0,0,0-.092.226v.657a.307.307,0,0,0,.092.226.308.308,0,0,0,.226.092h2.134a.237.237,0,0,1,.2.087.186.186,0,0,1,.005.21,1.442,1.442,0,0,1-.205.359,2.455,2.455,0,0,1-.523.513,2.261,2.261,0,0,1-.657.328,2.291,2.291,0,0,1-.749.123,2.146,2.146,0,0,1-.954-.215,2.3,2.3,0,0,1-.78-.554,2.883,2.883,0,0,1-.533-.81,2.438,2.438,0,0,1-.195-.975,2.488,2.488,0,0,1,.195-.975,2.892,2.892,0,0,1,.533-.81,2.5,2.5,0,0,1,.78-.564,2.329,2.329,0,0,1,.954-.205,2.188,2.188,0,0,1,1.149.328,2.1,2.1,0,0,1,.354.256,3.517,3.517,0,0,1,.3.308.458.458,0,0,0,.221.123.3.3,0,0,0,.241-.041l.7-.421a.294.294,0,0,0,.139-.195.259.259,0,0,0-.056-.226,3.739,3.739,0,0,0-1.18-1.005,3.753,3.753,0,0,0-1.867-.472,3.741,3.741,0,0,0-1.508.308,4.258,4.258,0,0,0-1.241.831,4.07,4.07,0,0,0-.477.575,3.94,3.94,0,0,0-.364.667,3.865,3.865,0,0,0-.308,1.518,3.741,3.741,0,0,0,.308,1.508,3.951,3.951,0,0,0,.841,1.231,3.985,3.985,0,0,0,1.241.841,3.741,3.741,0,0,0,1.508.308,3.994,3.994,0,0,0,1.4-.246,3.68,3.68,0,0,0,1.17-.687,3.624,3.624,0,0,0,.831-1.036,3.292,3.292,0,0,0,.38-1.313,1.419,1.419,0,0,0,.015-.236q.006-.2.015-.41a.307.307,0,0,0-.092-.226m-9.14,3.919a.309.309,0,0,0,.092-.226v-6.863a.31.31,0,0,0-.092-.226.308.308,0,0,0-.226-.092h-.81a.291.291,0,0,0-.221.092.319.319,0,0,0-.087.226v6.863a.317.317,0,0,0,.087.226.291.291,0,0,0,.221.092h.81a.308.308,0,0,0,.226-.092m-2.626-6.238a.307.307,0,0,0,.092-.226V228.3a.308.308,0,0,0-.092-.226.308.308,0,0,0-.226-.092h-5.1a.307.307,0,0,0-.226.092.308.308,0,0,0-.092.226v.636a.307.307,0,0,0,.092.226.307.307,0,0,0,.226.092h1.518a.308.308,0,0,1,.226.092.307.307,0,0,1,.092.226v5.6a.307.307,0,0,0,.092.226.307.307,0,0,0,.226.092h.8a.308.308,0,0,0,.226-.092.307.307,0,0,0,.092-.226v-5.6a.307.307,0,0,1,.092-.226.307.307,0,0,1,.226-.092h1.508a.308.308,0,0,0,.226-.092m-11.818,5.324a.276.276,0,0,0,.133.195c.075.055.147.1.215.149s.137.087.205.128a3.781,3.781,0,0,0,.339.19q.174.088.359.159a3.665,3.665,0,0,0,.81.236,5.107,5.107,0,0,0,1.036.092,4.536,4.536,0,0,0,1.159-.144,2.5,2.5,0,0,0,.9-.431,1.85,1.85,0,0,0,.585-.708,2.386,2.386,0,0,0,.205-1.016,2.182,2.182,0,0,0-.154-.862,1.74,1.74,0,0,0-.39-.6c-.041-.041-.084-.08-.128-.118a1.286,1.286,0,0,0-.149-.108,2.152,2.152,0,0,0-.272-.164c-.106-.055-.2-.1-.282-.133l-.169-.062c-.058-.021-.115-.038-.169-.051-.1-.034-.205-.063-.308-.087s-.2-.043-.3-.056a2.571,2.571,0,0,1-.267-.051c-.082-.021-.161-.038-.236-.051-.1-.028-.194-.051-.292-.072s-.2-.044-.3-.072-.2-.055-.292-.082-.183-.058-.272-.092a1.314,1.314,0,0,1-.421-.256.5.5,0,0,1-.164-.38.6.6,0,0,1,.133-.39.889.889,0,0,1,.159-.144,1.469,1.469,0,0,1,.19-.113,2.107,2.107,0,0,1,.451-.154c.075-.013.149-.024.221-.031s.139-.01.2-.01a2.736,2.736,0,0,1,1.036.195,4.017,4.017,0,0,1,.759.39.333.333,0,0,0,.241.051.314.314,0,0,0,.21-.133l.431-.616a.306.306,0,0,0,.062-.236.316.316,0,0,0-.133-.205c-.076-.041-.144-.082-.205-.123s-.127-.082-.195-.123c-.1-.055-.195-.108-.3-.159a3.348,3.348,0,0,0-.318-.138q-.164-.051-.333-.1a3.582,3.582,0,0,0-.354-.077,5.16,5.16,0,0,0-.841-.062,4.745,4.745,0,0,0-.985.1,3.1,3.1,0,0,0-.923.349,2.1,2.1,0,0,0-.677.687,2.119,2.119,0,0,0-.267,1.1,1.974,1.974,0,0,0,.144.78,1.687,1.687,0,0,0,.4.574,2.12,2.12,0,0,0,.554.4,2.913,2.913,0,0,0,.626.256,3.09,3.09,0,0,0,.616.154c.1.021.188.04.277.056l.246.046.333.062c.106.021.21.045.313.072s.208.055.3.082a2.193,2.193,0,0,1,.246.092,1.215,1.215,0,0,1,.369.256.6.6,0,0,1,.144.39.7.7,0,0,1-.092.349,1,1,0,0,1-.277.318,1.4,1.4,0,0,1-.451.226,1.883,1.883,0,0,1-.616.092,2.82,2.82,0,0,1-1.262-.287,8.4,8.4,0,0,1-.9-.492.331.331,0,0,0-.236-.051.279.279,0,0,0-.195.133l-.431.636a.324.324,0,0,0-.051.236m-5.3-5.14a.307.307,0,0,1,.226-.092h3.457a.308.308,0,0,0,.226-.092.307.307,0,0,0,.092-.226V228.3a.308.308,0,0,0-.092-.226.308.308,0,0,0-.226-.092h-4.894a.307.307,0,0,0-.226.092.308.308,0,0,0-.092.226v6.874a.307.307,0,0,0,.092.226.307.307,0,0,0,.226.092h4.894a.308.308,0,0,0,.226-.092.307.307,0,0,0,.092-.226v-.657a.307.307,0,0,0-.092-.226.308.308,0,0,0-.226-.092h-3.457a.307.307,0,0,1-.226-.092.307.307,0,0,1-.092-.226v-1.129a.308.308,0,0,1,.092-.226.307.307,0,0,1,.226-.092h3a.308.308,0,0,0,.226-.092.307.307,0,0,0,.092-.226v-.667a.308.308,0,0,0-.092-.226.308.308,0,0,0-.226-.092h-3a.307.307,0,0,1-.226-.092.307.307,0,0,1-.092-.226v-1.241a.307.307,0,0,1,.092-.226m-7.387,2.39a.307.307,0,0,1-.092-.226v-1.939a.307.307,0,0,1,.092-.226.307.307,0,0,1,.226-.092h1.662a1.152,1.152,0,0,1,.605.144,1.072,1.072,0,0,1,.349.349c.034.069.065.138.092.21a1.329,1.329,0,0,1,.062.221,2.025,2.025,0,0,1,.041.39,1.3,1.3,0,0,1-.1.554,1.4,1.4,0,0,1-.267.39,1.022,1.022,0,0,1-.38.236,1.12,1.12,0,0,1-.4.082h-1.662a.307.307,0,0,1-.226-.092m-.18,3.663a.318.318,0,0,0,.087-.226v-1.754a.307.307,0,0,1,.092-.226.307.307,0,0,1,.226-.092h.79a.627.627,0,0,1,.277.072.619.619,0,0,1,.226.185l.677.954.344.467q.169.231.344.467a.648.648,0,0,0,.226.174.614.614,0,0,0,.277.072h1.036a.158.158,0,0,0,.169-.113.245.245,0,0,0-.046-.226q-.369-.513-.713-.969t-.723-.97a.224.224,0,0,1-.051-.21.276.276,0,0,1,.144-.169,2.39,2.39,0,0,0,.852-.78,2.574,2.574,0,0,0,.421-1.488,2.9,2.9,0,0,0-.185-1.046,2.485,2.485,0,0,0-.226-.441,2.385,2.385,0,0,0-.308-.38,2.7,2.7,0,0,0-.81-.533,2.934,2.934,0,0,0-1.057-.185h-3.1a.307.307,0,0,0-.226.092.308.308,0,0,0-.092.226v6.874a.307.307,0,0,0,.092.226.307.307,0,0,0,.226.092h.81a.291.291,0,0,0,.221-.092m-4.96-3.437h-1.59a.307.307,0,0,1-.226-.092.307.307,0,0,1-.092-.226v-2.072a.307.307,0,0,1,.092-.226.307.307,0,0,1,.226-.092h1.436a1.32,1.32,0,0,1,.6.123,1.23,1.23,0,0,1,.431.318,1.258,1.258,0,0,1,.267.441,1.568,1.568,0,0,1,.092.513,1.549,1.549,0,0,1-.072.492,1.111,1.111,0,0,1-.087.221,1.329,1.329,0,0,1-.128.2,1.033,1.033,0,0,1-.39.287,1.308,1.308,0,0,1-.554.113m0-3.981h-3.026a.307.307,0,0,0-.226.092.308.308,0,0,0-.092.226v6.874a.307.307,0,0,0,.092.226.307.307,0,0,0,.226.092h.81a.291.291,0,0,0,.221-.092.315.315,0,0,0,.087-.226v-1.6a.308.308,0,0,1,.092-.226.307.307,0,0,1,.226-.092h1.354a3.71,3.71,0,0,0,1.272-.205,2.461,2.461,0,0,0,.9-.554,2.3,2.3,0,0,0,.544-.821,2.789,2.789,0,0,0,.185-1.026,2.749,2.749,0,0,0-.205-1.046,4.109,4.109,0,0,0-.251-.451,2.078,2.078,0,0,0-.323-.39,2.794,2.794,0,0,0-.841-.574,2.749,2.749,0,0,0-1.046-.205" transform="translate(-24.756 -40.964)" fill="#fff"/>
  </g>
</svg>
